<svg xmlns="http://www.w3.org/2000/svg" width="256" height="256" viewBox="0 0 256 256">
  <!-- 背景 -->
  <rect width="256" height="256" rx="32" fill="#07C160" />

  <!-- 前景微信图标 -->
  <g transform="translate(48, 48) scale(0.8)">
    <!-- 微信聊天气泡 -->
    <path d="M160 96c0 44.183-35.817 80-80 80-14.606 0-28.33-3.91-40.12-10.74L16 176l10.74-32.12C19.91 132.33 16 118.606 16 104c0-44.183 35.817-80 80-80s64 35.817 64 72z" fill="white"/>
    <!-- 微信图标内部的点 -->
    <circle cx="56" cy="104" r="8" fill="#07C160"/>
    <circle cx="96" cy="104" r="8" fill="#07C160"/>
  </g>

  <!-- 背景微信图标 -->
  <g transform="translate(128, 128) scale(0.8)">
    <!-- 微信聊天气泡 -->
    <path d="M160 96c0 44.183-35.817 80-80 80-14.606 0-28.33-3.91-40.12-10.74L16 176l10.74-32.12C19.91 132.33 16 118.606 16 104c0-44.183 35.817-80 80-80s64 35.817 64 72z" fill="white" opacity="0.7"/>
    <!-- 微信图标内部的点 -->
    <circle cx="56" cy="104" r="8" fill="#07C160"/>
    <circle cx="96" cy="104" r="8" fill="#07C160"/>
  </g>

  <!-- 多开标识 -->
  <circle cx="200" cy="56" r="24" fill="white"/>
  <text x="200" y="64" font-family="Arial" font-size="24" font-weight="bold" text-anchor="middle" fill="#07C160">+</text>
</svg>